PathFileType	4	(X/Y/Z)	Kaydara	
DataRate	CameraRate	NumFrames	NumMarkers	Units	OrigDataRate	OrigDataStartFrame	OrigNumFrames	
240.00	240.00	4	72	mm	240.00	270	359	
Frame#	Time	Hips			RightUpLeg			RightLeg			RightFoot			RightFoot_End			LeftUpLeg			LeftLeg			LeftFoot			LeftFoot_End			Spine			Spine1			Spine2			Spine3			Neck			Head			Head_End			RightShoulder			RightArm			RightForeArm			RightHand			RightHandThumb1			RightHandThumb2			RightHandThumb3			RightHandThumb3_End			RightInHandIndex			RightHandIndex1			RightHandIndex2			RightHandIndex3			RightHandIndex3_End			RightInHandMiddle			RightHandMiddle1			RightHandMiddle2			RightHandMiddle3			RightHandMiddle3_End			RightInHandRing			RightHandRing1			RightHandRing2			RightHandRing3			RightHandRing3_End			RightInHandPinky			RightHandPinky1			RightHandPinky2			RightHandPinky3			RightHandPinky3_End			LeftShoulder			LeftArm			LeftForeArm			LeftHand			LeftHandThumb1			LeftHandThumb2			LeftHandThumb3			LeftHandThumb3_End			LeftInHandIndex			LeftHandIndex1			LeftHandIndex2			LeftHandIndex3			LeftHandIndex3_End			LeftInHandMiddle			LeftHandMiddle1			LeftHandMiddle2			LeftHandMiddle3			LeftHandMiddle3_End			LeftInHandRing			LeftHandRing1			LeftHandRing2			LeftHandRing3			LeftHandRing3_End			LeftInHandPinky			LeftHandPinky1			LeftHandPinky2			LeftHandPinky3			LeftHandPinky3_End			
		X1	Y1	Z1	X2	Y2	Z2	X3	Y3	Z3	X4	Y4	Z4	X5	Y5	Z5	X6	Y6	Z6	X7	Y7	Z7	X8	Y8	Z8	X9	Y9	Z9	X10	Y10	Z10	X11	Y11	Z11	X12	Y12	Z12	X13	Y13	Z13	X14	Y14	Z14	X15	Y15	Z15	X16	Y16	Z16	X17	Y17	Z17	X18	Y18	Z18	X19	Y19	Z19	X20	Y20	Z20	X21	Y21	Z21	X22	Y22	Z22	X23	Y23	Z23	X24	Y24	Z24	X25	Y25	Z25	X26	Y26	Z26	X27	Y27	Z27	X28	Y28	Z28	X29	Y29	Z29	X30	Y30	Z30	X31	Y31	Z31	X32	Y32	Z32	X33	Y33	Z33	X34	Y34	Z34	X35	Y35	Z35	X36	Y36	Z36	X37	Y37	Z37	X38	Y38	Z38	X39	Y39	Z39	X40	Y40	Z40	X41	Y41	Z41	X42	Y42	Z42	X43	Y43	Z43	X44	Y44	Z44	X45	Y45	Z45	X46	Y46	Z46	X47	Y47	Z47	X48	Y48	Z48	X49	Y49	Z49	X50	Y50	Z50	X51	Y51	Z51	X52	Y52	Z52	X53	Y53	Z53	X54	Y54	Z54	X55	Y55	Z55	X56	Y56	Z56	X57	Y57	Z57	X58	Y58	Z58	X59	Y59	Z59	X60	Y60	Z60	X61	Y61	Z61	X62	Y62	Z62	X63	Y63	Z63	X64	Y64	Z64	X65	Y65	Z65	X66	Y66	Z66	X67	Y67	Z67	X68	Y68	Z68	X69	Y69	Z69	X70	Y70	Z70	X71	Y71	Z71	X72	Y72	Z72	

270	1.121	7198.941	914.58397	126.699	7245.447105308395	887.9122170967321	51.16845611490384	7148.321325770091	493.61099600238566	-51.54821025485684	7142.458886797941	102.50224758544535	-129.4783566140039	6991.356927508998	25.588206095267516	-41.213400452851964	7165.719345205813	914.8646569898415	214.23722050726792	7074.315397631712	512.2113026142382	284.2914130652065	6993.451624453308	86.887144312334	361.163083852912	6872.806324975994	3.7870263854490984	238.37787884612018	7137.251939781975	1033.4891828465284	76.53797766769215	7077.344388224472	1089.4673085689046	24.451156691662288	7011.888104526099	1140.900918917994	-33.05452709991643	6945.234336315507	1179.4205497164648	-92.34726713331327	6872.845987368734	1220.9436754911771	-154.10372426065754	6805.495588867241	1259.4612492580234	-207.88359574175038	6670.434155217519	1341.2331196035304	-226.98808256793154	6910.440369907108	1196.1602578063794	-156.53788707224285	6929.684992160628	1128.768696546156	-241.90804509910888	6926.601556877724	943.2698402042939	-132.83498568420632	6863.637608843126	822.9907413922189	-147.81978037064795	6863.150152398401	835.8936677901792	-147.85475827307963	6859.104520743893	837.6356249058756	-147.03489621693328	6856.2627159189005	835.3165095110426	-146.57546152559576	6853.872729256457	830.3614477264159	-146.2878480165483	6863.364943575104	824.5266140956758	-148.38604972796622	6861.354301949178	813.2910669088673	-149.10927431360813	6858.101148077719	804.8784744982901	-148.92710184267605	6855.236947596864	803.07159491634	-148.29063168578202	6852.298485918084	803.8851150497673	-147.41090323624488	6863.280367060033	815.2824031062434	-148.6316011515912	6861.274029132598	799.3235596365054	-149.4700278093054	6857.71723859457	788.9596949053264	-149.30043904127285	6854.258346964232	786.2115829529141	-148.54657206092483	6851.041513071705	786.8255091031244	-147.59079866335293	6863.2901879400815	809.0187838580732	-148.79445981706988	6861.554071938587	789.222740463229	-149.71015005905267	6858.449812446984	779.0047014693253	-149.59077153276345	6855.111232962341	775.7247110794485	-148.87870626724236	6852.085552731184	776.0037884908835	-147.98719405522868	6863.215869623031	802.2771428658465	-148.8995067805014	6861.638339442726	779.8957536893272	-149.8306501296069	6859.153527994374	769.9514879093135	-149.77536691721087	6856.718820933321	766.7066918257198	-149.27548220985173	6854.038829747695	766.4633687186359	-148.49696996975024	6883.546342062515	1218.6007939060828	-109.64024633344047	6855.1251160649745	1228.1534698680694	-5.299117343118603	6908.87771964408	1029.7176436096938	-30.95492115550101	6885.611666503157	860.4264408852245	-105.45127824658552	6884.849412820273	867.6590024403285	-111.99153865020854	6889.973822028357	857.0732650787454	-121.29846323174444	6893.515049300649	846.5086364498237	-127.7607992299459	6896.443768719789	834.9700780742173	-133.13191072670134	6884.053981634946	857.6895047912919	-112.35251801872047	6884.288468353084	838.147608360869	-123.56964023566543	6887.802052449443	820.2112347359431	-132.28877874752115	6891.829623560943	810.7966725515194	-137.3557536488478	6896.406523254847	804.1755462313894	-141.31109874430982	6884.130514058026	849.4798479405584	-111.95380548835269	6884.399667167414	825.9799000355293	-122.678723978594	6888.247208670627	805.3824725447037	-132.10518531370204	6893.112819323569	793.5321565890015	-138.17614427545772	6898.123934783168	786.0482681679407	-142.48351351668592	6884.144448595184	844.1976819013362	-111.37870787744055	6884.2978376822275	818.608143377701	-120.47018899313389	6887.665145036281	799.6442344878665	-128.57971011260523	6892.365731512625	787.6767081352292	-134.37901127907352	6897.080913449042	780.3855186146716	-138.40219019232546	6884.422755303199	838.5239710195367	-110.44733933303442	6884.620497004109	811.613958963733	-118.19139069926025	6887.3379850538695	794.9623622844834	-124.47926561369366	6890.776806961549	785.5240439084307	-128.6096844700634	6894.959558554634	778.6571106984347	-132.11623657166558
271	1.125	7198.941	914.58397	126.699	7245.369434784898	887.8306356106723	51.15091796921029	7148.2284436068885	493.5474807295457	-51.62067937233147	7142.4774530205295	102.44222953567541	-129.57226832405823	6991.378523401537	25.524605972971962	-41.30523980918403	7165.788399823212	914.9450815341673	214.26174768263954	7074.390941286974	512.2842354415303	284.28147191309574	6993.466540507297	86.95002443564294	361.03208397709597	6872.8292901245595	3.8421837023120435	238.24420824167117	7137.2938602325885	1033.4982511727371	76.5078655760249	7077.396555569027	1089.4689343595217	24.400893086483617	7011.947370732238	1140.8956551847123	-33.11933078234866	6945.294154142963	1179.414558633495	-92.41337170437728	6872.90686899462	1220.9364200365587	-154.17215611613213	6805.560288441402	1259.456172693446	-207.95554500741744	6670.5393057833435	1341.2747908892334	-227.1499662483693	6910.439763495282	1196.0517045777094	-156.5990923116093	6929.321598061784	1128.215158394082	-241.75852872703558	6925.622235362585	943.2991870743705	-131.5367483896979	6862.063578636085	822.9759910109783	-144.76449126308358	6861.513103321453	835.8490424216802	-144.5831673002818	6857.560021555271	837.5326775890873	-143.51402271495445	6854.782544309223	835.1723836446471	-142.87709236180686	6852.44607853336	830.1825113485672	-142.43817609695424	6861.704523583781	824.4793971446976	-145.07867952985035	6859.635647957161	813.1827518516106	-145.4107340170686	6856.433543964707	804.7160603335353	-144.9668702026312	6853.6559667937245	802.874390322108	-144.2070100164825	6850.826225262911	803.6583339857519	-143.25166305354287	6861.6259889049825	815.2352306506692	-145.32775164575614	6859.566093193962	799.2168212995052	-145.78654412071936	6856.066108699406	788.7941132642475	-145.33314453686086	6852.712253167397	786.0041189277343	-144.4312502739559	6849.6146356383215	786.5857272662643	-143.39314403489442	6861.640622121131	808.973303718425	-145.50286955731804	6859.857928334792	789.1256441609592	-146.08835878877375	6856.804400842396	778.8566036405939	-145.72399544742623	6853.567784819846	775.5363665294334	-144.8704131628154	6850.654505067672	775.7851291810964	-143.90208782642236	6861.580960103838	802.2345817232982	-145.63503420709299	6859.966564088285	779.8079717556559	-146.2792055803527	6857.524489788696	769.8235372052374	-146.032911140174	6855.165177359921	766.5497097416353	-145.432301113395	6852.585342936928	766.2797195779003	-144.58718243948397	6883.670693417681	1218.6982057316968	-109.71593133313206	6855.463792520134	1228.8350823857231	-5.341455341550098	6908.643814245627	1030.058037497492	-29.714656951667447	6884.389681205192	860.2466081937387	-103.02691183264702	6883.383082314772	867.4593325492782	-109.48542359760816	6888.23110470172	856.8782905213259	-118.79643261066452	6891.586985570875	846.3144230824153	-125.25060990664363	6894.367288736832	834.7743531847494	-130.60550698666	6882.592170836266	857.4752435890643	-109.78521456980258	6882.4805937075525	837.8877909406667	-120.8047737920758	6885.745974666988	819.9398974353815	-129.46251782430198	6889.636234653555	810.5348302298106	-134.5573828874332	6894.110946760591	803.932798491848	-138.58037157664097	6882.6997885052415	849.2613085603314	-109.36706836586248	6882.648217469862	825.7146066636092	-119.88875645910328	6886.230134915399	805.1042171601222	-129.24639583503452	6890.932587300784	793.2651687422805	-135.35012608393458	6895.8331076271	785.8020819402602	-139.73108328588341	6882.744568413168	843.9770521080526	-108.78239850784792	6882.637454685122	818.3431239503799	-117.68084927765601	6885.779078181137	799.3675933974465	-125.72884619631078	6890.325384348341	787.4107634652662	-131.55894087548563	6894.938047475132	780.1390512254767	-135.65092393904152	6883.068037200145	838.3040667215325	-107.85268371694339	6883.054754433051	811.3530002175823	-115.41767876701684	6885.601762187246	794.6917872399481	-121.65473514660181	6888.933004340179	785.2611208625218	-125.80686404930532	6893.027791429699	778.4113550450397	-129.37393331023236
272	1.129	7198.941	914.58397	126.699	7245.291742102944	887.7490277000657	51.13337957143376	7148.1355616052115	493.4839246852812	-51.693110675426944	7142.496139894244	102.38217342040751	-129.66616080507558	6991.400226648565	25.46094504252047	-41.39710291676176	7165.8574882386	915.0255433360201	214.28628534680826	7074.466593171122	512.3571957705163	284.27158154804374	6993.4816499733615	87.01291181099275	360.90110003073363	6872.8524487988325	3.8973351882390967	238.11056237554052	7137.335729779631	1033.50727227162	76.47770796215191	7077.448590428218	1089.4704627109288	24.350625215432803	7012.006403635908	1140.8902318880694	-33.18407692445233	6945.353619881952	1179.4083322550612	-92.47932836753544	6872.967279696937	1220.9288536648764	-154.2403455627241	6805.624417579521	1259.4507215668132	-208.02716706291505	6670.643936267337	1341.3161799838288	-227.31146699914893	6910.438696456058	1195.9428667770633	-156.66011416506362	6928.957540338193	1127.6615492211718	-241.60910704545532	6924.64296088979	943.3284246699362	-130.23874401230594	6860.489564589663	822.9601613936608	-141.70770106406158	6859.876062432671	835.8030505008878	-141.31012032893926	6856.015508651377	837.4280290664076	-139.99154519981283	6853.302331283805	835.026335541306	-139.17696914024327	6851.019352653903	830.0014787540367	-138.5865848548033	6860.044063242142	824.4308342964193	-141.76969285546832	6857.916834892342	813.0727109637636	-141.71021045348346	6854.765715190518	804.5516349968962	-141.00438001570643	6852.074749252862	802.6750053513592	-140.12101438532247	6849.353737233157	803.4292380201824	-139.08999096912817	6859.971541487963	815.1867572231984	-142.022169734898	6857.857956551772	799.1084357213526	-142.10090757024182	6854.414703122227	788.6265801519854	-141.3633826537146	6851.165867483152	785.7945027156325	-140.31331508304783	6848.187475767415	786.3436477120022	-139.1928093092273	6859.990969365769	808.9265642576903	-142.2094741722524	6858.161563840916	789.027014998092	-142.46432193645836	6855.158699722653	778.7067156182534	-141.85468586641747	6852.024029792379	775.3460423404149	-140.85943839219175	6849.223158580737	775.5643553687489	-139.8142337554661	6859.945948906438	802.1908185727088	-142.36868471194305	6858.29455413484	779.7187728592788	-142.72543515173334	6855.895157510697	769.6939768905754	-142.28787935763535	6853.611224857679	766.3909863538554	-141.5864264659389	6851.131553079939	766.0942134008991	-140.6746372872659	6883.794643772173	1218.7953311613487	-109.79137782997185	6855.802305205089	1229.5162106768971	-5.383483989205123	6908.4108549788	1030.397987392261	-28.473474304476387	6883.16854991112	860.0659487720548	-100.60148264078033	6881.917523362543	867.258966529889	-106.97835845983747	6886.489052046518	856.6828171164819	-116.29345516558499	6889.65951317808	846.11982627833	-122.73944504576633	6892.2913398943765	834.5783222718155	-128.0780772650984	6881.131129354591	857.2602071211052	-107.21686245084726	6880.673356993337	837.627248858264	-118.0387560112002	6883.690435946578	819.6679366171451	-126.63502264518303	6887.443328559284	810.2724774352137	-131.75775322881242	6891.815810042025	803.6896676833076	-135.84838326737702	6881.269839475315	849.0419355162309	-106.77920132796403	6880.8974200453	825.4484973786429	-117.09751494331945	6884.213606914842	804.8252484438849	-126.38623147781824	6888.752833826718	792.9976002116205	-132.52269829379352	6893.542712248043	785.5554526150731	-136.9772385741721	6881.345473254278	843.7555452983429	-106.18490433644315	6880.977752902765	818.0772034321466	-114.89014767810994	6883.8936012920185	799.0901326480655	-122.8765220634935	6888.285563170689	787.1441228485925	-128.7373712405738	6892.795663911599	779.8920152477591	-132.89815124595523	6881.714117278032	838.0832403008355	-105.25678385264662	6881.489723089622	811.0910667816895	-112.64252312886333	6883.866180417381	794.4202903768879	-118.82866677556376	6887.089797569781	784.997360266751	-123.00246979005615	6891.096582372054	778.1648712260184	-126.63004552158863
273	1.133	7198.941	914.58397	126.699	7245.214034452665	887.6674010262917	51.11584250254822	7148.042688304196	493.42033401249165	-51.76549805315608	7142.514944962258	102.3220850652257	-129.76002593187587	6991.422034601737	25.397229618068607	-41.488981550580185	7165.926603970655	915.1060347591208	214.31083119327988	7074.542345720285	512.4301766937301	284.2617424314637	6993.496950321348	87.07580055809167	360.7701436535123	6872.875797736191	3.9524757479551536	237.9769530744949	7137.377544938394	1033.5162456655887	76.44750796543818	7077.500488960396	1089.47189427439	24.300357862435256	7012.065199445578	1140.8846508341937	-33.24875975938929	6945.412730482702	1179.4018730211635	-92.54513179908011	6873.027217119032	1220.9209795000136	-154.30828764859004	6805.687974232161	1259.4448992772993	-208.09845715470132	6670.7480404588605	1341.3572852704235	-227.47257196923053	6910.4371720746585	1195.8337567447584	-156.72094800938655	6928.592857286935	1127.1079212968364	-241.45979344413757	6923.663824185844	943.3575512814429	-128.94109154777016	6858.915711831188	822.9432619033576	-138.64970372181193	6858.2391811424195	835.7557061247007	-138.03593206695882	6854.4711246692805	837.3217009772211	-136.46780310685511	6851.82221338594	834.8783920653307	-135.4754490733805	6849.592683094906	829.818381139267	-134.73344679903678	6858.383716258172	824.3809397715304	-138.45940848646723	6856.1980224283225	812.9609667028108	-138.00806167560165	6853.0978166918885	804.3852278069013	-137.0400157414937	6850.493441611377	802.4734735912501	-136.0330416619737	6847.881157984386	803.19786427546	-134.92629142161397	6858.31717793022	815.13699673626	-138.7151743047567	6856.14977783112	798.9984246813401	-138.4134754040279	6852.763175211395	788.4571247686123	-137.39153933831193	6849.619333194873	785.5827686349597	-136.19316735187883	6846.760165248483	786.0993086115029	-134.9902036050321	6858.341382320019	808.8785789503173	-138.9145916398316	6856.465135890833	788.9268730898805	-138.8383911315448	6853.512861802466	778.5550639058104	-137.9832192564615	6850.480110822468	775.1537699105465	-136.84617271637188	6847.791645375564	775.3415020545419	-135.7240303203313	6858.310987235157	802.145866223925	-139.10077392503297	6856.622464598407	779.628175460309	-139.1696839736797	6854.2656821887795	769.5628303876479	-138.54063616366648	6852.057107226184	766.2305485807359	-137.7382330824467	6849.6775943181	765.9068802545899	-136.7597160458243	6883.918184409079	1218.8921634088917	-109.86658014838433	6856.140623952277	1230.1967949366315	-5.425201119946692	6908.178858078936	1030.7374653446216	-27.231494003193077	6881.9483797262865	859.8844853821313	-98.17522138618885	6880.4528669469055	867.0579283369872	-104.4705812749536	6884.747821738066	856.4868671398651	-113.78976826709537	6887.732807618152	845.924867503489	-120.22754269155462	6890.2161118877875	834.3820064339677	-125.54986114178685	6879.670987483954	857.0444211863204	-104.64770581474896	6878.866921650424	837.3660119587248	-115.27184990689335	6881.635623478001	819.3953825628989	-123.8065620750332	6885.2511056617	810.0096428079928	-128.95713079158548	6889.521323343207	803.4461797971729	-133.11539335593193	6879.840794052992	848.8217553314312	-104.19045062179231	6879.1474325719455	825.1816030427406	-114.30526520964196	6882.197807732812	804.5455978139928	-123.52496461114077	6886.573757628645	792.7294804728571	-129.6941300597147	6891.252958038757	785.3084067884216	-134.22224138546872	6879.947287084705	843.5331884311383	-103.5864726936997	6879.31888099638	817.8104131286681	-112.09835021815915	6882.008884566375	798.8118841039918	-120.02300966118445	6886.246452972405	786.8768163154463	-125.91457131580844	6890.653957630944	779.6444380226623	-130.14413437602335	6880.361114990719	837.8615188862228	-102.65988710273831	6879.925542288693	810.8281899692971	-109.86618860398403	6882.131395276454	794.1479035522775	-116.00133025993038	6885.247352476946	784.7327926869891	-120.19676935467217	6889.166105673938	777.9176874519835	-123.8848350068438
